<svg width="12" height="7" viewBox="0 0 12 7" fill="none" xmlns="http://www.w3.org/2000/svg">
<path d="M10.9981 0.326003L6.00008 5.198L1.00208 0.326003C0.912778 0.23878 0.792903 0.18995 0.668076 0.18995C0.543249 0.18995 0.423374 0.23878 0.334076 0.326003C0.290838 0.368367 0.256488 0.418932 0.233038 0.474739C0.209588 0.530545 0.19751 0.590469 0.19751 0.651002C0.19751 0.711535 0.209588 0.77146 0.233038 0.827266C0.256488 0.883072 0.290838 0.933638 0.334076 0.976002L5.65108 6.16C5.74445 6.25102 5.86968 6.30195 6.00008 6.30195C6.13047 6.30195 6.2557 6.25102 6.34908 6.16L11.6661 0.977003C11.7096 0.934607 11.7442 0.883916 11.7679 0.827925C11.7915 0.771934 11.8037 0.711776 11.8037 0.651002C11.8037 0.590229 11.7915 0.53007 11.7679 0.474079C11.7442 0.418088 11.7096 0.367398 11.6661 0.325002C11.5768 0.23778 11.4569 0.18895 11.3321 0.18895C11.2073 0.18895 11.0874 0.23778 10.9981 0.325002V0.326003Z" fill="#2A2A2A"/>
</svg>
