<svg width="7" height="12" viewBox="0 0 7 12" fill="none" xmlns="http://www.w3.org/2000/svg">
<path d="M0.136053 0.136674C0.0488307 0.225972 0 0.345847 0 0.470674C0 0.595501 0.0488307 0.715376 0.136053 0.804674L5.00905 5.80367L0.136053 10.8017C0.0488307 10.891 0 11.0108 0 11.1357C0 11.2605 0.0488307 11.3804 0.136053 11.4697C0.178449 11.5132 0.229139 11.5478 0.28513 11.5715C0.341121 11.5951 0.401279 11.6073 0.462053 11.6073C0.522827 11.6073 0.582985 11.5951 0.638976 11.5715C0.694967 11.5478 0.745657 11.5132 0.788053 11.4697L5.97005 6.15267C6.06107 6.0593 6.11201 5.93407 6.11201 5.80367C6.11201 5.67328 6.06107 5.54805 5.97005 5.45467L0.788053 0.137674C0.745657 0.0941307 0.694967 0.0595218 0.638976 0.0358903C0.582985 0.0122589 0.522827 8.39233e-05 0.462053 8.39233e-05C0.401279 8.39233e-05 0.341121 0.0122589 0.28513 0.0358903C0.229139 0.0595218 0.178449 0.0941307 0.136053 0.137674V0.136674Z" fill="#1B7ED9"/>
</svg>
