<svg width="7" height="13" viewBox="0 0 7 13" fill="none" xmlns="http://www.w3.org/2000/svg">
<path d="M0.325995 0.832971C0.238772 0.922268 0.189941 1.04214 0.189941 1.16697C0.189941 1.2918 0.238772 1.41167 0.325995 1.50097L5.199 6.49997L0.325995 11.498C0.238772 11.5873 0.189941 11.7071 0.189941 11.832C0.189941 11.9568 0.238772 12.0767 0.325995 12.166C0.368391 12.2095 0.41908 12.2441 0.475071 12.2678C0.531063 12.2914 0.59122 12.3036 0.651994 12.3036C0.712768 12.3036 0.772926 12.2914 0.828918 12.2678C0.884909 12.2441 0.935598 12.2095 0.977995 12.166L6.15999 6.84897C6.25101 6.7556 6.30195 6.63036 6.30195 6.49997C6.30195 6.36958 6.25101 6.24434 6.15999 6.15097L0.977995 0.833971C0.935598 0.790427 0.884909 0.755818 0.828918 0.732187C0.772926 0.708556 0.712768 0.696381 0.651994 0.696381C0.59122 0.696381 0.531063 0.708556 0.475071 0.732187C0.41908 0.755818 0.368391 0.790427 0.325995 0.833971V0.832971Z" fill="white"/>
</svg>
