<svg width="144" height="24" viewBox="0 0 144 24" fill="none" xmlns="http://www.w3.org/2000/svg">
<path d="M0 3.19182V0.997442H12.0074V3.19182H7.12709V23.5703H4.89523V3.19182H0Z" fill="#2A2A2A"/>
<path d="M14.8047 0.429668H16.8878V9.86701C17.7309 8.72123 18.6584 7.86701 19.6702 7.30435C20.682 6.73146 21.7781 6.44501 22.9585 6.44501C24.1686 6.44501 25.2399 6.76215 26.1723 7.39642C27.1147 8.03069 27.8091 8.88491 28.2554 9.95908C28.7018 11.023 28.925 12.6957 28.925 14.977V23.5703H26.8419V15.6061C26.8419 13.6829 26.7675 12.399 26.6187 11.7545C26.3608 10.6496 25.8896 9.82097 25.2052 9.26854C24.5307 8.70588 23.6429 8.42455 22.5418 8.42455C21.2821 8.42455 20.1513 8.85422 19.1494 9.71356C18.1575 10.5729 17.5028 11.6368 17.1854 12.9054C16.987 13.7238 16.8878 15.2379 16.8878 17.4476V23.5703H14.8047V0.429668Z" fill="#2A2A2A"/>
<path d="M47.0329 18.0307L48.7886 18.9821C48.2133 20.1483 47.5487 21.0895 46.7948 21.8056C46.0409 22.5217 45.1928 23.0691 44.2505 23.4476C43.3081 23.8159 42.2418 24 41.0515 24C38.4129 24 36.3497 23.11 34.8617 21.3299C33.3738 19.5396 32.6299 17.5192 32.6299 15.2685C32.6299 13.1509 33.2598 11.2634 34.5195 9.60614C36.1166 7.49872 38.2542 6.44501 40.9324 6.44501C43.69 6.44501 45.8921 7.5243 47.5387 9.68286C48.7092 11.2072 49.3044 13.11 49.3242 15.3913H34.7725C34.8122 17.335 35.4123 18.9309 36.5728 20.179C37.7334 21.4169 39.1668 22.0358 40.8729 22.0358C41.6962 22.0358 42.4947 21.8875 43.2684 21.5908C44.0521 21.2941 44.7167 20.9003 45.2622 20.4092C45.8078 19.9182 46.398 19.1253 47.0329 18.0307ZM47.0329 13.5345C46.7551 12.3887 46.3484 11.4731 45.8128 10.7877C45.287 10.1023 44.5877 9.54987 43.7148 9.13043C42.8419 8.711 41.9244 8.50128 40.9622 8.50128C39.3751 8.50128 38.0112 9.02813 36.8704 10.0818C36.0372 10.8491 35.4073 12 34.9808 13.5345H47.0329Z" fill="#2A2A2A"/>
<path d="M62.0756 0.997442H66.3906C68.1265 0.997442 69.4606 1.21228 70.3931 1.64194C71.3255 2.06138 72.0595 2.711 72.5952 3.59079C73.1407 4.47059 73.4135 5.44757 73.4135 6.52174C73.4135 7.5243 73.1755 8.4399 72.6993 9.26854C72.2232 10.087 71.5239 10.7519 70.6014 11.2634C71.7421 11.6624 72.62 12.133 73.235 12.6752C73.85 13.2072 74.3261 13.8568 74.6634 14.624C75.0105 15.3811 75.1841 16.2046 75.1841 17.0946C75.1841 18.9054 74.5394 20.4399 73.2498 21.6982C71.9702 22.9463 70.2492 23.5703 68.0868 23.5703H62.0756V0.997442ZM64.2182 3.20716V10.4348H65.4681C66.9857 10.4348 68.1017 10.2916 68.8159 10.0051C69.5301 9.70844 70.0955 9.24808 70.5121 8.62404C70.9287 7.98977 71.137 7.289 71.137 6.52174C71.137 5.48849 70.7849 4.68031 70.0806 4.09719C69.3862 3.50384 68.2753 3.20716 66.7477 3.20716H64.2182ZM64.2182 12.7059V21.3606H66.9262C68.5232 21.3606 69.6937 21.202 70.4377 20.8849C71.1816 20.5575 71.7768 20.0512 72.2232 19.3657C72.6795 18.6803 72.9076 17.9386 72.9076 17.1407C72.9076 16.1381 72.5902 15.2634 71.9554 14.5166C71.3205 13.7698 70.4476 13.2583 69.3366 12.9821C68.5927 12.798 67.2982 12.7059 65.4532 12.7059H64.2182Z" fill="#2A2A2A"/>
<path d="M95.3007 6.87468V23.5703H93.2474V20.7008C92.3745 21.7954 91.3924 22.6189 90.3013 23.1714C89.2201 23.7238 88.0347 24 86.7452 24C84.4538 24 82.4947 23.1458 80.868 21.4373C79.2511 19.7187 78.4427 17.6317 78.4427 15.1765C78.4427 12.7724 79.261 10.7161 80.8977 9.00767C82.5344 7.29923 84.5034 6.44501 86.8047 6.44501C88.1339 6.44501 89.3342 6.73657 90.4055 7.31969C91.4867 7.90281 92.434 8.77749 93.2474 9.94373V6.87468H95.3007ZM86.9684 8.51662C85.8078 8.51662 84.7365 8.8133 83.7545 9.40665C82.7725 9.98977 81.9888 10.8133 81.4036 11.8772C80.8283 12.9412 80.5406 14.0665 80.5406 15.2532C80.5406 16.4297 80.8332 17.555 81.4185 18.6292C82.0037 19.7033 82.7874 20.5422 83.7694 21.1458C84.7613 21.7391 85.8227 22.0358 86.9535 22.0358C88.0942 22.0358 89.1755 21.7391 90.1972 21.1458C91.2188 20.5524 92.0025 19.7494 92.548 18.7366C93.1035 17.7238 93.3813 16.5831 93.3813 15.3146C93.3813 13.3811 92.7613 11.7647 91.5214 10.4655C90.2914 9.16624 88.7737 8.51662 86.9684 8.51662Z" fill="#2A2A2A"/>
<path d="M100.732 0C101.208 0 101.614 0.173913 101.952 0.521739C102.289 0.869565 102.458 1.289 102.458 1.78005C102.458 2.26087 102.289 2.67519 101.952 3.02302C101.614 3.37084 101.208 3.54476 100.732 3.54476C100.265 3.54476 99.8636 3.37084 99.5264 3.02302C99.1891 2.67519 99.0205 2.26087 99.0205 1.78005C99.0205 1.289 99.1891 0.869565 99.5264 0.521739C99.8636 0.173913 100.265 0 100.732 0ZM99.69 6.87468H101.788V23.5703H99.69V6.87468Z" fill="#2A2A2A"/>
<path d="M106.088 0.429668H108.186V13.5959L115.67 6.87468H118.735L109.852 14.8389L119.256 23.5703H116.31L108.186 16.0665V23.5703H106.088V0.429668Z" fill="#2A2A2A"/>
<path d="M137.528 6.87468V23.5703H135.474V20.7008C134.601 21.7954 133.619 22.6189 132.528 23.1714C131.447 23.7238 130.262 24 128.972 24C126.681 24 124.722 23.1458 123.095 21.4373C121.478 19.7187 120.67 17.6317 120.67 15.1765C120.67 12.7724 121.488 10.7161 123.125 9.00767C124.761 7.29923 126.73 6.44501 129.032 6.44501C130.361 6.44501 131.561 6.73657 132.632 7.31969C133.714 7.90281 134.661 8.77749 135.474 9.94373V6.87468H137.528ZM129.195 8.51662C128.035 8.51662 126.963 8.8133 125.981 9.40665C124.999 9.98977 124.216 10.8133 123.631 11.8772C123.055 12.9412 122.768 14.0665 122.768 15.2532C122.768 16.4297 123.06 17.555 123.645 18.6292C124.231 19.7033 125.014 20.5422 125.996 21.1458C126.988 21.7391 128.05 22.0358 129.18 22.0358C130.321 22.0358 131.402 21.7391 132.424 21.1458C133.446 20.5524 134.229 19.7494 134.775 18.7366C135.33 17.7238 135.608 16.5831 135.608 15.3146C135.608 13.3811 134.988 11.7647 133.748 10.4655C132.518 9.16624 131.001 8.51662 129.195 8.51662Z" fill="#2A2A2A"/>
<path d="M141.917 0.429668H144V23.5703H141.917V0.429668Z" fill="#2A2A2A"/>
</svg>
