<svg width="46" height="46" viewBox="0 0 46 46" fill="none" xmlns="http://www.w3.org/2000/svg">
<path fill-rule="evenodd" clip-rule="evenodd" d="M24.7551 1.23343C28.8448 2.78784 29.9429 7.9816 33.2879 10.7631C35.854 12.897 39.7702 13.0039 41.941 15.5244C44.2674 18.2255 46.7886 21.8613 45.7659 25.2513C44.6801 28.8508 39.7637 29.6183 36.9284 32.1411C35.0734 33.7917 33.6272 35.6681 31.9797 37.5182C29.4988 40.3042 28.3772 44.7771 24.7551 45.8113C21.2713 46.806 18.0536 43.5977 14.6096 42.4778C10.2298 41.0537 4.44548 41.9331 1.68378 38.3092C-1.01996 34.7613 0.00427212 29.4364 1.48155 25.2513C2.79886 21.5194 7.80312 20.1812 9.36726 16.5421C11.2829 12.085 7.83772 5.85126 11.3006 2.40624C14.5156 -0.792227 20.4843 -0.389809 24.7551 1.23343Z" fill="#1B7ED9"/>
</svg>
